<?xml version="1.0" encoding="UTF-8" standalone="no"?>
<!DOCTYPE svg PUBLIC "-//W3C//DTD SVG 1.1//EN" "http://www.w3.org/Graphics/SVG/1.1/DTD/svg11.dtd">
<svg version="1.1" xmlns="http://www.w3.org/2000/svg" xmlns:xlink="http://www.w3.org/1999/xlink" preserveAspectRatio="xMidYMid meet" viewBox="0 0 640 640" width="640" height="640"><defs><path d="M196.65 166.8L205.15 162.13L213.85 157.78L222.73 153.76L231.79 150.09L241.02 146.77L250.41 143.81L259.95 141.22L269.64 139.01L279.47 137.18L289.43 135.74L299.51 134.7L309.7 134.07L320 133.86L330.3 134.07L340.49 134.7L350.57 135.74L360.53 137.18L370.36 139.01L380.05 141.22L389.59 143.81L398.98 146.77L408.21 150.09L417.27 153.76L426.15 157.78L434.85 162.13L443.35 166.8L451.65 171.8L459.74 177.11L467.61 182.72L475.25 188.62L482.66 194.81L489.83 201.28L496.74 208.02L503.4 215.02L509.79 222.27L515.91 229.77L521.74 237.51L527.28 245.48L532.52 253.67L537.46 262.07L542.08 270.67L546.38 279.47L550.34 288.46L553.97 297.63L557.25 306.98L560.17 316.48L562.73 326.15L564.92 335.96L566.73 345.9L568.15 355.98L569.17 366.19L569.79 376.51L570 386.93L569.79 397.36L569.17 407.67L568.15 417.88L566.73 427.96L564.92 437.91L562.73 447.72L560.17 457.38L557.25 466.88L553.97 476.23L550.34 485.4L546.38 494.39L542.08 503.19L537.46 511.79L532.52 520.2L527.28 528.38L521.74 536.35L515.91 544.09L509.79 551.59L503.4 558.84L496.74 565.84L489.83 572.58L482.66 579.05L475.25 585.24L467.61 591.15L459.74 596.76L451.65 602.06L443.35 607.06L434.85 611.74L426.15 616.08L417.27 620.1L408.21 623.77L398.98 627.09L389.59 630.05L380.05 632.64L370.36 634.85L360.53 636.69L350.57 638.12L340.49 639.16L330.3 639.79L320 640L309.7 639.79L299.51 639.16L289.43 638.12L279.47 636.69L269.64 634.85L259.95 632.64L250.41 630.05L241.02 627.09L231.79 623.77L222.73 620.1L213.85 616.08L205.15 611.74L196.65 607.06L195 606.07L195 640L70 640L70 133.86L195 133.86L195 167.8L196.65 166.8ZM234.75 260.82L229.71 261.33L224.74 262.05L219.82 262.97L214.98 264.08L210.2 265.37L205.51 266.85L200.89 268.51L196.36 270.35L191.92 272.35L187.58 274.53L183.33 276.87L179.18 279.36L175.13 282.02L171.2 284.82L167.37 287.78L163.67 290.87L160.09 294.11L156.63 297.47L153.3 300.98L150.11 304.6L147.05 308.35L144.13 312.22L141.36 316.2L138.74 320.3L136.27 324.5L133.96 328.8L131.81 333.2L129.83 337.7L128.02 342.28L126.38 346.95L124.92 351.71L123.64 356.54L122.54 361.44L121.64 366.42L120.93 371.46L120.41 376.56L120.1 381.72L120 386.93L120.1 392.14L120.41 397.3L120.93 402.4L121.64 407.44L122.54 412.42L123.64 417.32L124.92 422.15L126.38 426.91L128.02 431.58L129.83 436.16L131.81 440.66L133.96 445.06L136.27 449.36L138.74 453.56L141.36 457.66L144.13 461.64L147.05 465.51L150.11 469.26L153.3 472.89L156.63 476.39L160.09 479.76L163.67 482.99L167.37 486.09L171.2 489.04L175.13 491.84L179.18 494.5L183.33 496.99L187.58 499.33L191.92 501.51L196.36 503.52L200.89 505.35L205.51 507.01L210.2 508.49L214.98 509.79L219.82 510.89L224.74 511.81L229.71 512.53L234.75 513.05L239.85 513.36L245 513.47L250.15 513.36L255.25 513.05L260.29 512.53L265.26 511.81L270.18 510.89L275.02 509.79L279.8 508.49L284.49 507.01L289.11 505.35L293.64 503.52L298.08 501.51L302.42 499.33L306.67 496.99L310.82 494.5L314.87 491.84L318.8 489.04L322.63 486.09L326.33 482.99L329.91 479.76L333.37 476.39L336.7 472.89L339.89 469.26L342.95 465.51L345.87 461.64L348.64 457.66L351.26 453.56L353.73 449.36L356.04 445.06L358.19 440.66L360.17 436.16L361.98 431.58L363.62 426.91L365.08 422.15L366.36 417.32L367.46 412.42L368.36 407.44L369.07 402.4L369.59 397.3L369.9 392.14L370 386.93L369.9 381.72L369.59 376.56L369.07 371.46L368.36 366.42L367.46 361.44L366.36 356.54L365.08 351.71L363.62 346.95L361.98 342.28L360.17 337.7L358.19 333.2L356.04 328.8L353.73 324.5L351.26 320.3L348.64 316.2L345.87 312.22L342.95 308.35L339.89 304.6L336.7 300.98L333.37 297.47L329.91 294.11L326.33 290.87L322.63 287.78L318.8 284.82L314.87 282.02L310.82 279.36L306.67 276.87L302.42 274.53L298.08 272.35L293.64 270.35L289.11 268.51L284.49 266.85L279.8 265.37L275.02 264.08L270.18 262.97L265.26 262.05L260.29 261.33L255.25 260.82L250.15 260.5L245 260.4L239.85 260.5L234.75 260.82Z" id="aHoF8dkKI"></path><path d="M182.5 70.59C182.5 98.53 160.1 121.21 132.5 121.21C104.9 121.21 82.5 98.53 82.5 70.59C82.5 42.66 104.9 19.98 132.5 19.98C160.1 19.98 182.5 42.66 182.5 70.59Z" id="a3YFQTGo31"></path></defs><g><g><g><use xlink:href="#aHoF8dkKI" opacity="1" fill="#8b85cf" fill-opacity="1"></use></g><g><use xlink:href="#a3YFQTGo31" opacity="1" fill="#8b85cf" fill-opacity="1"></use></g></g></g></svg>